<mxfile host="app.diagrams.net" modified="2023-09-06T01:53:19.903Z" agent="Mozilla/5.0 (Macintosh; Intel Mac OS X 10_15_7) AppleWebKit/537.36 (KHTML, like Gecko) Chrome/116.0.0.0 Safari/537.36" etag="HugYTvToA1RI_jM6ytmd" version="21.6.9" type="device">
  <diagram name="overview" id="eGIVmkXGgqs6RdcAJEvl">
    <mxGraphModel dx="1236" dy="731" grid="1" gridSize="10" guides="1" tooltips="1" connect="1" arrows="1" fold="1" page="1" pageScale="1" pageWidth="850" pageHeight="1100" math="0" shadow="0">
      <root>
        <mxCell id="0" />
        <mxCell id="1" parent="0" />
        <mxCell id="D9I2YPdoNzFN8ZJmyS8D-5" value="DevSecOps Platform" style="rounded=0;whiteSpace=wrap;html=1;fillColor=none;verticalAlign=top;" parent="1" vertex="1">
          <mxGeometry x="135" y="380" width="335" height="200" as="geometry" />
        </mxCell>
        <mxCell id="JMqW-AsfVTylSakH0KtI-5" style="edgeStyle=orthogonalEdgeStyle;rounded=1;orthogonalLoop=1;jettySize=auto;html=1;exitX=0.909;exitY=0.808;exitDx=0;exitDy=0;strokeWidth=2;exitPerimeter=0;" parent="1" source="D9I2YPdoNzFN8ZJmyS8D-10" target="n0b7M-keuhFvWAmUCbKB-4" edge="1">
          <mxGeometry relative="1" as="geometry">
            <Array as="points">
              <mxPoint x="559" y="464" />
              <mxPoint x="559" y="220" />
            </Array>
            <mxPoint x="458.98720000000003" y="580.0065000000002" as="sourcePoint" />
            <mxPoint x="410" y="220" as="targetPoint" />
          </mxGeometry>
        </mxCell>
        <mxCell id="JMqW-AsfVTylSakH0KtI-8" value="&lt;font style=&quot;font-size: 14px;&quot;&gt;Setup&lt;/font&gt;" style="edgeLabel;html=1;align=center;verticalAlign=middle;resizable=0;points=[];" parent="JMqW-AsfVTylSakH0KtI-5" vertex="1" connectable="0">
          <mxGeometry x="-0.3599" y="-2" relative="1" as="geometry">
            <mxPoint as="offset" />
          </mxGeometry>
        </mxCell>
        <mxCell id="n0b7M-keuhFvWAmUCbKB-5" value="Local DevX" style="rounded=0;whiteSpace=wrap;html=1;fillColor=none;verticalAlign=top;" parent="1" vertex="1">
          <mxGeometry x="40" width="300" height="310" as="geometry" />
        </mxCell>
        <mxCell id="n0b7M-keuhFvWAmUCbKB-4" value="LocalStack Cloud" style="points=[[0,0],[0.25,0],[0.5,0],[0.75,0],[1,0],[1,0.25],[1,0.5],[1,0.75],[1,1],[0.75,1],[0.5,1],[0.25,1],[0,1],[0,0.75],[0,0.5],[0,0.25]];outlineConnect=0;gradientColor=none;html=1;whiteSpace=wrap;fontSize=12;fontStyle=0;container=1;pointerEvents=0;collapsible=0;recursiveResize=0;shape=mxgraph.aws4.group;grIcon=mxgraph.aws4.group_aws_cloud;strokeColor=#232F3E;fillColor=none;verticalAlign=top;align=left;spacingLeft=30;fontColor=#232F3E;dashed=0;" parent="1" vertex="1">
          <mxGeometry x="87.84" y="40" width="252.16" height="270" as="geometry" />
        </mxCell>
        <mxCell id="JMqW-AsfVTylSakH0KtI-1" value="&lt;b&gt;&lt;font style=&quot;font-size: 14px;&quot;&gt;S3&lt;/font&gt;&lt;/b&gt;" style="sketch=0;points=[[0,0,0],[0.25,0,0],[0.5,0,0],[0.75,0,0],[1,0,0],[0,1,0],[0.25,1,0],[0.5,1,0],[0.75,1,0],[1,1,0],[0,0.25,0],[0,0.5,0],[0,0.75,0],[1,0.25,0],[1,0.5,0],[1,0.75,0]];outlineConnect=0;fontColor=#232F3E;gradientColor=#60A337;gradientDirection=north;fillColor=#277116;strokeColor=#ffffff;dashed=0;verticalLabelPosition=bottom;verticalAlign=top;align=center;html=1;fontSize=12;fontStyle=0;aspect=fixed;shape=mxgraph.aws4.resourceIcon;resIcon=mxgraph.aws4.s3;" parent="n0b7M-keuhFvWAmUCbKB-4" vertex="1">
          <mxGeometry x="87.08" y="96" width="78" height="78" as="geometry" />
        </mxCell>
        <mxCell id="D9I2YPdoNzFN8ZJmyS8D-10" value="DevSecOps Tooling" style="html=1;verticalLabelPosition=bottom;align=center;labelBackgroundColor=#ffffff;verticalAlign=top;strokeWidth=2;strokeColor=#0080F0;shadow=0;dashed=0;shape=mxgraph.ios7.icons.tools;pointerEvents=1" parent="1" vertex="1">
          <mxGeometry x="360" y="440.00000000000006" width="29.7" height="29.7" as="geometry" />
        </mxCell>
        <mxCell id="D9I2YPdoNzFN8ZJmyS8D-15" value="&lt;ol style=&quot;font-size: 16px;&quot;&gt;&lt;li&gt;LocalStack is running.&lt;/li&gt;&lt;li&gt;&lt;span style=&quot;background-color: initial;&quot;&gt;State is created in LocalStack and&lt;br&gt;saved in a CloudPod&lt;/span&gt;&lt;/li&gt;&lt;li&gt;Run test. Loads CloudPod state and&lt;br&gt;make cloud service state assertions&lt;/li&gt;&lt;/ol&gt;" style="text;html=1;align=left;verticalAlign=middle;resizable=0;points=[];autosize=1;strokeColor=#666666;fillColor=#f5f5f5;fontColor=#333333;" parent="1" vertex="1">
          <mxGeometry x="400" y="40.00000000000006" width="320" height="140" as="geometry" />
        </mxCell>
        <mxCell id="D9I2YPdoNzFN8ZJmyS8D-16" value="&lt;font style=&quot;font-size: 14px;&quot;&gt;1&lt;/font&gt;" style="text;html=1;align=center;verticalAlign=middle;resizable=0;points=[];autosize=1;strokeColor=#6c8ebf;fillColor=#dae8fc;strokeWidth=4;rounded=1;glass=0;shadow=0;" parent="1" vertex="1">
          <mxGeometry x="310" y="280.00000000000006" width="30" height="30" as="geometry" />
        </mxCell>
        <mxCell id="D9I2YPdoNzFN8ZJmyS8D-17" value="&lt;font style=&quot;font-size: 14px;&quot;&gt;2&lt;/font&gt;" style="text;html=1;align=center;verticalAlign=middle;resizable=0;points=[];autosize=1;strokeColor=#6c8ebf;fillColor=#dae8fc;strokeWidth=4;rounded=1;glass=0;shadow=0;" parent="1" vertex="1">
          <mxGeometry x="520" y="280" width="30" height="30" as="geometry" />
        </mxCell>
        <mxCell id="D9I2YPdoNzFN8ZJmyS8D-19" value="&lt;font style=&quot;font-size: 14px;&quot;&gt;3&lt;/font&gt;" style="text;html=1;align=center;verticalAlign=middle;resizable=0;points=[];autosize=1;strokeColor=#6c8ebf;fillColor=#dae8fc;strokeWidth=4;rounded=1;glass=0;shadow=0;" parent="1" vertex="1">
          <mxGeometry x="170" y="320" width="30" height="30" as="geometry" />
        </mxCell>
        <mxCell id="JMqW-AsfVTylSakH0KtI-9" style="edgeStyle=orthogonalEdgeStyle;rounded=1;orthogonalLoop=1;jettySize=auto;html=1;exitX=0.5;exitY=0;exitDx=0;exitDy=0;strokeWidth=2;entryX=0.25;entryY=1;entryDx=0;entryDy=0;" parent="1" source="JMqW-AsfVTylSakH0KtI-3" edge="1" target="n0b7M-keuhFvWAmUCbKB-4">
          <mxGeometry relative="1" as="geometry">
            <Array as="points">
              <mxPoint x="110" y="430" />
              <mxPoint x="110" y="360" />
              <mxPoint x="151" y="360" />
            </Array>
            <mxPoint x="160" y="390" as="targetPoint" />
          </mxGeometry>
        </mxCell>
        <mxCell id="JMqW-AsfVTylSakH0KtI-10" value="&lt;font style=&quot;font-size: 14px;&quot;&gt;Test&lt;/font&gt;" style="edgeLabel;html=1;align=center;verticalAlign=middle;resizable=0;points=[];" parent="JMqW-AsfVTylSakH0KtI-9" vertex="1" connectable="0">
          <mxGeometry x="0.1439" y="3" relative="1" as="geometry">
            <mxPoint as="offset" />
          </mxGeometry>
        </mxCell>
        <mxCell id="JMqW-AsfVTylSakH0KtI-3" value="" style="shape=image;verticalLabelPosition=bottom;labelBackgroundColor=default;verticalAlign=top;aspect=fixed;imageAspect=0;image=https://upload.wikimedia.org/wikipedia/commons/thumb/b/ba/Pytest_logo.svg/1500px-Pytest_logo.svg.png;" parent="1" vertex="1">
          <mxGeometry x="160" y="430" width="80" height="80" as="geometry" />
        </mxCell>
      </root>
    </mxGraphModel>
  </diagram>
</mxfile>
